<svg xmlns="http://www.w3.org/2000/svg" width="480" height="720" viewBox="0 0 480 720">
  <defs>
    <linearGradient id="bg" x1="0" x2="0" y1="0" y2="1">
      <stop offset="0%" stop-color="#e2e8f0"/>
      <stop offset="100%" stop-color="#cbd5e1"/>
    </linearGradient>
    <linearGradient id="shirt" x1="0" x2="1" y1="0" y2="1">
      <stop offset="0%" stop-color="#2563eb"/>
      <stop offset="100%" stop-color="#1d4ed8"/>
    </linearGradient>
  </defs>
  <rect width="480" height="720" fill="url(#bg)"/>
  <rect x="95" y="70" width="290" height="580" rx="24" fill="#f8fafc" stroke="#94a3b8" stroke-width="6"/>
  <circle cx="240" cy="205" r="72" fill="#f1c27d"/>
  <path d="M170 177c14-45 48-69 70-69 48 0 76 26 82 80-23-19-44-27-82-27-23 0-46 3-70 16z" fill="#334155"/>
  <rect x="165" y="280" width="150" height="210" rx="38" fill="url(#shirt)"/>
  <rect x="120" y="300" width="48" height="170" rx="24" fill="#f1c27d"/>
  <rect x="312" y="300" width="48" height="170" rx="24" fill="#f1c27d"/>
  <rect x="192" y="486" width="40" height="120" rx="20" fill="#1e293b"/>
  <rect x="248" y="486" width="40" height="120" rx="20" fill="#1e293b"/>
  <rect x="180" y="603" width="60" height="18" rx="9" fill="#475569"/>
  <rect x="240" y="603" width="60" height="18" rx="9" fill="#475569"/>
  <text x="240" y="675" text-anchor="middle" font-family="Inter, Arial, sans-serif" font-size="20" fill="#64748b">
    Seeded demo progress photo
  </text>
</svg>
